<?xml version="1.0" encoding="UTF-8"?>
<svg xmlns="http://www.w3.org/2000/svg" xmlns:xlink="http://www.w3.org/1999/xlink" width="256pt" height="256pt" viewBox="0 0 256 256" version="1.1">
<g id="surface1">
<path style=" stroke:none;fill-rule:nonzero;fill:rgb(27.450982%,50.980395%,70.588237%);fill-opacity:1;" d="M 94.683594 76.429688 Z M 65.316406 61.746094 C 65.394531 61.75 65.355469 61.75 65.316406 61.746094 Z M 241.023438 84.421875 C 235.71875 71.671875 224.984375 57.921875 216.554688 53.554688 C 223.414063 67 227.390625 80.496094 228.90625 90.554688 C 228.90625 90.554688 228.90625 90.625 228.929688 90.761719 C 215.140625 56.386719 191.753906 42.523438 172.65625 12.34375 C 171.691406 10.820313 170.726563 9.289063 169.785156 7.679688 C 169.285156 6.855469 168.855469 6.011719 168.441406 5.15625 C 167.652344 3.625 167.039063 2.011719 166.621094 0.34375 C 166.628906 0.179688 166.507813 0.0351563 166.34375 0.015625 C 166.269531 -0.00390625 166.191406 -0.00390625 166.113281 0.015625 L 166.054688 0.0507813 L 165.964844 0.101563 L 166.015625 0.03125 C 138.898438 15.914063 127.65625 43.71875 124.765625 61.421875 C 116.386719 61.894531 108.179688 63.988281 100.601563 67.585938 C 99.171875 68.292969 98.507813 69.964844 99.054688 71.460938 C 99.609375 73.058594 101.351563 73.90625 102.949219 73.355469 L 103.210938 73.25 C 109.824219 70.125 116.964844 68.261719 124.265625 67.75 L 124.976563 67.699219 C 125.976563 67.640625 126.976563 67.601563 127.976563 67.589844 C 133.902344 67.542969 139.804688 68.355469 145.5 70 C 145.835938 70.101563 146.160156 70.210938 146.5 70.316406 C 147.445313 70.601563 148.378906 70.914063 149.308594 71.25 C 149.988281 71.5 150.664063 71.75 151.335938 72.039063 C 151.878906 72.261719 152.425781 72.480469 152.960938 72.714844 C 153.800781 73.089844 154.632813 73.484375 155.460938 73.890625 C 155.835938 74.074219 156.210938 74.261719 156.585938 74.453125 C 157.386719 74.875 158.175781 75.3125 158.953125 75.769531 C 159.457031 76.058594 159.957031 76.359375 160.453125 76.671875 C 169.289063 82.136719 176.621094 89.71875 181.785156 98.734375 C 175.285156 94.160156 163.609375 89.640625 152.375 91.59375 C 196.246094 113.523438 184.464844 189.046875 123.679688 186.195313 C 118.265625 185.972656 112.917969 184.941406 107.808594 183.136719 C 106.601563 182.679688 105.410156 182.191406 104.230469 181.671875 C 103.539063 181.355469 102.851563 181.035156 102.171875 180.671875 C 87.25 173 74.949219 158.460938 73.414063 140.796875 C 73.414063 140.796875 79.039063 119.820313 113.726563 119.820313 C 117.476563 119.820313 128.191406 109.359375 128.390625 106.320313 C 128.34375 105.320313 107.121094 96.886719 98.84375 88.730469 C 94.421875 84.375 92.320313 82.273438 90.460938 80.699219 C 89.453125 79.847656 88.402344 79.050781 87.304688 78.316406 C 84.523438 68.585938 84.40625 58.289063 86.960938 48.5 C 74.429688 54.203125 64.683594 63.226563 57.605469 71.183594 L 57.546875 71.183594 C 52.710938 65.058594 53.046875 44.859375 53.328125 40.644531 C 53.269531 40.378906 49.71875 42.484375 49.253906 42.800781 C 44.988281 45.847656 41 49.265625 37.335938 53.015625 C 33.167969 57.246094 29.359375 61.816406 25.949219 66.679688 C 18.105469 77.792969 12.542969 90.351563 9.585938 103.628906 C 9.554688 103.765625 8.421875 108.734375 7.585938 114.871094 C 7.445313 115.828125 7.316406 116.785156 7.195313 117.738281 C 6.910156 119.585938 6.695313 121.59375 6.476563 124.738281 C 6.476563 124.859375 6.476563 124.980469 6.449219 125.101563 C 6.359375 126.453125 6.28125 127.804688 6.203125 129.160156 C 6.203125 129.363281 6.203125 129.570313 6.203125 129.78125 C 6.203125 197.128906 60.808594 251.726563 128.164063 251.726563 C 188.484375 251.726563 238.574219 207.933594 248.378906 150.414063 C 248.585938 148.855469 248.75 147.285156 248.933594 145.710938 C 251.359375 124.796875 248.664063 102.816406 241.023438 84.433594 Z M 241.023438 84.421875 "/>
</g>
</svg>
