<?xml version="1.0" encoding="UTF-8"?>
<svg xmlns="http://www.w3.org/2000/svg" xmlns:xlink="http://www.w3.org/1999/xlink" width="288pt" height="256pt" viewBox="0 0 288 256" version="1.1">
<g id="surface1">
<path style=" stroke:none;fill-rule:nonzero;fill:rgb(27.450982%,50.980395%,70.588237%);fill-opacity:1;" d="M 274.828125 62.042969 C 271.6875 50.214844 262.433594 40.902344 250.683594 37.742188 C 229.390625 32 144 32 144 32 C 144 32 58.609375 32 37.316406 37.742188 C 25.566406 40.902344 16.3125 50.214844 13.171875 62.042969 C 7.464844 83.476563 7.464844 128.195313 7.464844 128.195313 C 7.464844 128.195313 7.464844 172.914063 13.171875 194.347656 C 16.3125 206.171875 25.566406 215.097656 37.316406 218.257813 C 58.609375 224 144 224 144 224 C 144 224 229.390625 224 250.683594 218.257813 C 262.433594 215.097656 271.6875 206.171875 274.828125 194.347656 C 280.535156 172.914063 280.535156 128.195313 280.535156 128.195313 C 280.535156 128.195313 280.535156 83.476563 274.828125 62.042969 Z M 116.074219 168.796875 L 116.074219 87.59375 L 187.441406 128.195313 Z M 116.074219 168.796875 "/>
</g>
</svg>
