<?xml version="1.0" encoding="UTF-8"?>
<svg xmlns="http://www.w3.org/2000/svg" xmlns:xlink="http://www.w3.org/1999/xlink" width="192pt" height="256pt" viewBox="0 0 192 256" version="1.1">
<g id="surface16">
<path style=" stroke:none;fill-rule:nonzero;fill:rgb(27.450982%,50.980395%,70.588237%);fill-opacity:1;" d="M 112 68 L 112 0 L 12 0 C 5.351563 0 0 5.351563 0 12 L 0 244 C 0 250.648438 5.351563 256 12 256 L 180 256 C 186.648438 256 192 250.648438 192 244 L 192 80 L 124 80 C 117.398438 80 112 74.601563 112 68 Z M 140.550781 128 L 152.5 128 C 156.351563 128 159.199219 131.550781 158.351563 135.351563 L 139.351563 219.351563 C 138.75 222.101563 136.300781 224 133.5 224 L 114.5 224 C 111.75 224 109.351563 222.101563 108.699219 219.449219 C 95.800781 167.699219 98.300781 178.851563 95.898438 164.199219 L 95.648438 164.199219 C 95.101563 171.351563 94.449219 172.898438 82.851563 219.449219 C 82.199219 222.101563 79.800781 224 77.050781 224 L 58.5 224 C 55.699219 224 53.25 222.050781 52.648438 219.300781 L 33.75 135.300781 C 32.898438 131.550781 35.75 128 39.601563 128 L 51.851563 128 C 54.699219 128 57.199219 130 57.75 132.851563 C 65.550781 171.851563 67.800781 187.601563 68.25 193.949219 C 69.050781 188.851563 71.898438 177.601563 82.949219 132.601563 C 83.601563 129.898438 86 128.050781 88.800781 128.050781 L 103.351563 128.050781 C 106.148438 128.050781 108.550781 129.949219 109.199219 132.648438 C 121.199219 182.851563 123.601563 194.648438 124 197.351563 C 123.898438 191.75 122.699219 188.449219 134.800781 132.75 C 135.300781 129.949219 137.75 128 140.550781 128 Z M 192 60.949219 L 192 64 L 128 64 L 128 0 L 131.050781 0 C 134.25 0 137.300781 1.25 139.550781 3.5 L 188.5 52.5 C 190.75 54.75 192 57.800781 192 60.949219 Z M 192 60.949219 "/>
</g>
</svg>
