<?xml version="1.0" encoding="UTF-8"?>
<svg xmlns="http://www.w3.org/2000/svg" xmlns:xlink="http://www.w3.org/1999/xlink" width="192pt" height="256pt" viewBox="0 0 192 256" version="1.1">
<g id="surface6">
<path style=" stroke:none;fill-rule:nonzero;fill:rgb(27.450982%,50.980395%,70.588237%);fill-opacity:1;" d="M 90.949219 128.050781 C 88.449219 120.050781 88.5 104.601563 89.949219 104.601563 C 94.148438 104.601563 93.75 123.050781 90.949219 128.050781 Z M 90.101563 151.648438 C 86.25 161.75 81.449219 173.300781 75.898438 183 C 85.050781 179.5 95.398438 174.398438 107.351563 172.050781 C 101 167.25 94.898438 160.351563 90.101563 151.648438 Z M 43.050781 214.050781 C 43.050781 214.449219 49.648438 211.351563 60.5 193.949219 C 57.148438 197.101563 45.949219 206.199219 43.050781 214.050781 Z M 124 80 L 192 80 L 192 244 C 192 250.648438 186.648438 256 180 256 L 12 256 C 5.351563 256 0 250.648438 0 244 L 0 12 C 0 5.351563 5.351563 0 12 0 L 112 0 L 112 68 C 112 74.601563 117.398438 80 124 80 Z M 120 165.898438 C 110 159.800781 103.351563 151.398438 98.648438 139 C 100.898438 129.75 104.449219 115.699219 101.75 106.898438 C 99.398438 92.199219 80.550781 93.648438 77.851563 103.5 C 75.351563 112.648438 77.648438 125.550781 81.898438 142 C 76.101563 155.800781 67.550781 174.300781 61.5 184.898438 C 61.449219 184.898438 61.449219 184.949219 61.398438 184.949219 C 47.851563 191.898438 24.601563 207.199219 34.148438 218.949219 C 36.949219 222.398438 42.148438 223.949219 44.898438 223.949219 C 53.851563 223.949219 62.75 214.949219 75.449219 193.050781 C 88.351563 188.800781 102.5 183.5 114.949219 181.449219 C 125.800781 187.351563 138.5 191.199219 146.949219 191.199219 C 161.550781 191.199219 162.550781 175.199219 156.800781 169.5 C 149.851563 162.699219 129.648438 164.648438 120 165.898438 Z M 188.5 52.5 L 139.5 3.5 C 137.25 1.25 134.199219 0 131 0 L 128 0 L 128 64 L 192 64 L 192 60.949219 C 192 57.800781 190.75 54.75 188.5 52.5 Z M 151.449219 180.148438 C 153.5 178.800781 150.199219 174.199219 130.050781 175.648438 C 148.601563 183.550781 151.449219 180.148438 151.449219 180.148438 Z M 151.449219 180.148438 "/>
</g>
</svg>
